<?xml version="1.0" standalone="no"?>
<!DOCTYPE svg PUBLIC "-//W3C//DTD SVG 20010904//EN"
 "http://www.w3.org/TR/2001/REC-SVG-20010904/DTD/svg10.dtd">
<svg version="1.0" xmlns="http://www.w3.org/2000/svg"
 width="1024.000000pt" height="1024.000000pt" viewBox="0 0 1024.000000 1024.000000"
 preserveAspectRatio="xMidYMid meet">

<g transform="translate(0.000000,1024.000000) scale(0.100000,-0.100000)"
fill="#000000" stroke="none">
<path d="M2895 9109 c-160 -23 -282 -80 -392 -183 -152 -141 -244 -329 -279
-568 -22 -153 -15 -450 16 -628 103 -589 405 -1420 811 -2231 114 -229 299
-571 340 -631 26 -36 24 -47 -15 -88 -111 -116 -285 -377 -358 -538 -95 -211
-168 -451 -204 -677 -22 -134 -30 -495 -14 -639 29 -273 78 -462 179 -700 120
-279 274 -501 515 -741 345 -343 782 -570 1293 -669 188 -37 368 -50 588 -43
281 9 459 41 748 134 359 115 669 300 936 558 305 295 491 596 615 995 138
444 142 965 11 1421 -95 330 -237 593 -467 865 -37 45 -68 84 -68 88 0 4 28
53 61 109 147 243 361 648 471 892 100 221 134 301 190 439 371 927 529 1638
462 2084 -33 226 -108 390 -244 536 -183 195 -462 268 -746 196 -197 -51 -379
-186 -546 -408 -246 -326 -538 -950 -769 -1642 -133 -400 -281 -970 -343
-1320 l-22 -125 -80 5 c-125 8 -511 6 -606 -3 l-87 -9 -6 49 c-23 157 -123
613 -186 843 -170 620 -375 1172 -614 1655 -204 413 -343 613 -534 770 -203
165 -431 236 -656 204z m256 -326 c126 -43 269 -160 381 -313 318 -434 708
-1404 924 -2300 57 -235 154 -706 175 -847 7 -46 17 -83 23 -83 6 0 49 9 95
20 152 37 273 51 472 57 222 6 359 -4 549 -43 69 -15 131 -27 139 -28 10 -1
21 43 42 169 140 829 378 1642 676 2315 248 557 473 896 668 1005 212 119 428
94 579 -66 70 -73 104 -136 138 -255 21 -72 23 -99 23 -299 0 -196 -3 -236
-28 -368 -75 -407 -252 -965 -469 -1477 -153 -360 -434 -915 -684 -1348 l-83
-144 87 -86 c114 -113 180 -193 265 -322 167 -251 295 -592 338 -900 20 -141
18 -478 -4 -620 -104 -671 -522 -1232 -1155 -1549 -445 -223 -966 -293 -1457
-196 -685 136 -1269 575 -1556 1168 -137 285 -199 563 -199 896 0 437 127 865
358 1209 86 128 126 177 245 299 l100 101 -81 139 c-630 1084 -1068 2180
-1178 2946 -23 167 -16 460 16 567 57 197 189 336 350 370 65 13 186 5 251
-17z"/>
<path d="M3929 3793 c-57 -60 -111 -116 -118 -126 -13 -16 1 -32 139 -173
l154 -155 -159 -159 c-88 -88 -157 -162 -155 -164 3 -3 59 -60 125 -126 l120
-121 159 161 160 161 156 -156 156 -156 35 33 c20 18 75 74 122 124 l87 90
-22 25 c-12 13 -80 84 -152 157 l-130 133 154 154 154 155 -119 123 c-66 68
-125 125 -132 126 -6 0 -78 -69 -160 -154 l-149 -155 -154 155 c-85 85 -157
155 -160 155 -3 0 -53 -48 -111 -107z"/>
<path d="M5800 3774 l-122 -127 153 -153 152 -153 -151 -156 -152 -157 39 -47
c22 -25 77 -83 124 -129 l84 -84 149 156 c81 86 153 156 158 156 5 0 78 -71
162 -157 l152 -158 126 125 126 125 -138 140 c-76 77 -146 150 -157 163 l-19
23 153 153 c179 180 178 144 16 306 l-106 105 -157 -159 -157 -159 -150 156
c-83 87 -153 157 -157 157 -3 0 -61 -57 -128 -126z"/>
</g>
</svg>
